<svg xmlns="http://www.w3.org/2000/svg" xmlns:xlink="http://www.w3.org/1999/xlink" version="1.1" viewBox="0 0 2300 2900" style="background: #ffffff"><defs><style>@import url(https://fonts.googleapis.com/css?family=Open+Sans:400,700);</style></defs><defs joint-selector="defs"></defs><g  joint-selector="layers" transform="matrix(1,0,0,1,0,0)"><g ></g><g ><!--z-index:1--><!--z-index:2--><!--z-index:3--><!--z-index:4--><!--z-index:5--><!--z-index:6--><!--z-index:7--><!--z-index:8--><!--z-index:9--><!--z-index:10--><!--z-index:11--><!--z-index:12--><!--z-index:13--><!--z-index:14--><!--z-index:15--><g   id="j_2"  transform="translate(20,2863.6)"><g id="v-5"><text  id="v-6" font-size="22px" xml:space="preserve" y="0.8em" font-weight="normal" text-anchor="start" fill="#aaaaaa" pointer-events="none" display="block" font-family="Open Sans"><tspan  dy="0" display="block">Monday, 24 March 2025 at 14:44 Central European Standard Time</tspan></text></g></g><!--z-index:16--><g   id="j_1"  transform="translate(20,2820.4)"><g id="v-3"><text  id="v-4" font-size="36px" xml:space="preserve" y="0.8em" font-weight="normal" text-anchor="start" fill="#000000" pointer-events="none" display="block" font-family="Open Sans"><tspan  dy="0" display="block">[System Landscape]</tspan></text></g></g><!--z-index:17--><g   id="j_3"  transform="translate(1830,670)" style=""><g  id="v-10" style="opacity: 1;"><rect  x="0" y="160" width="400" height="240" rx="70" id="v-12" stroke="#82c0e6" stroke-width="2" pointer-events="visiblePainted" fill="#90d5ff" style="fill: rgb(144, 213, 255); stroke: rgb(130, 192, 230);"></rect><circle  cx="200" cy="88.88888888888889" r="88.88888888888889" id="v-11" stroke="#82c0e6" stroke-width="2" pointer-events="visiblePainted" fill="#90d5ff" style="fill: rgb(144, 213, 255); stroke: rgb(130, 192, 230);"></circle><line  x1="80" y1="266.6666666666667" x2="80" y2="400" id="v-18" stroke="#82c0e6" stroke-width="2" style="stroke: rgb(130, 192, 230);"></line><line  x1="320" y1="266.6666666666667" x2="320" y2="400" id="v-19" stroke="#82c0e6" stroke-width="2" style="stroke: rgb(130, 192, 230);"></line><text  id="v-13" font-size="34" xml:space="preserve" y="0.8em" font-weight="bold" text-anchor="middle" pointer-events="visible" font-family="Open Sans" fill="#ffffff" transform="matrix(1,0,0,1,200,218.10000610351562)" style="fill: rgb(255, 255, 255);"><tspan  dy="0">Data Scientist</tspan></text><text  id="v-14" font-size="17" xml:space="preserve" y="0.8em" text-anchor="middle" font-family="Open Sans" fill="#ffffff" transform="matrix(1,0,0,1,200,258.8999938964844)" style="fill: rgb(255, 255, 255);"><tspan  dy="0">[Person]</tspan></text><text  id="v-15" font-size="24" xml:space="preserve" y="0.8em" text-anchor="middle" font-family="Open Sans" fill="#ffffff" transform="matrix(1,0,0,1,200,289.29998779296875)" style="fill: rgb(255, 255, 255);"><tspan  dy="0">Creates and refines models for</tspan><tspan dy="1.2em" x="0" >system software</tspan></text><g  id="v-16" font-weight="normal" text-anchor="middle" color="#ffffff" transform="matrix(1,0,0,1,197.5,368)" style="fill: rgb(255, 255, 255);" display="none"><g ></g><g ></g><g ></g><g ></g></g><image  id="v-17"></image></g></g><!--z-index:18--><g   id="j_4"  transform="translate(95,670)" style=""><g  id="v-23" style="opacity: 1;"><rect  x="0" y="160" width="400" height="240" rx="70" id="v-25" stroke="#82c0e6" stroke-width="2" pointer-events="visiblePainted" fill="#90d5ff" style="fill: rgb(144, 213, 255); stroke: rgb(130, 192, 230);"></rect><circle  cx="200" cy="88.88888888888889" r="88.88888888888889" id="v-24" stroke="#82c0e6" stroke-width="2" pointer-events="visiblePainted" fill="#90d5ff" style="fill: rgb(144, 213, 255); stroke: rgb(130, 192, 230);"></circle><line  x1="80" y1="266.6666666666667" x2="80" y2="400" id="v-31" stroke="#82c0e6" stroke-width="2" style="stroke: rgb(130, 192, 230);"></line><line  x1="320" y1="266.6666666666667" x2="320" y2="400" id="v-32" stroke="#82c0e6" stroke-width="2" style="stroke: rgb(130, 192, 230);"></line><text  id="v-26" font-size="34" xml:space="preserve" y="0.8em" font-weight="bold" text-anchor="middle" pointer-events="visible" font-family="Open Sans" fill="#ffffff" transform="matrix(1,0,0,1,200,218.10000610351562)" style="fill: rgb(255, 255, 255);"><tspan  dy="0">Data Engineer</tspan></text><text  id="v-27" font-size="17" xml:space="preserve" y="0.8em" text-anchor="middle" font-family="Open Sans" fill="#ffffff" transform="matrix(1,0,0,1,200,258.8999938964844)" style="fill: rgb(255, 255, 255);"><tspan  dy="0">[Person]</tspan></text><text  id="v-28" font-size="24" xml:space="preserve" y="0.8em" text-anchor="middle" font-family="Open Sans" fill="#ffffff" transform="matrix(1,0,0,1,200,289.29998779296875)" style="fill: rgb(255, 255, 255);"><tspan  dy="0">Implements data pipelines and</tspan><tspan dy="1.2em" x="0" >infrastructure</tspan></text><g  id="v-29" font-weight="normal" text-anchor="middle" color="#ffffff" transform="matrix(1,0,0,1,197.5,368)" style="fill: rgb(255, 255, 255);" display="none"><g ></g><g ></g><g ></g><g ></g></g><image  id="v-30"></image></g></g><!--z-index:19--><g   id="j_5"  transform="translate(1825,1650)" style=""><g  id="v-36" style="opacity: 1;"><rect  x="0" y="160" width="400" height="240" rx="70" id="v-38" stroke="#82c0e6" stroke-width="2" pointer-events="visiblePainted" fill="#90d5ff" style="fill: rgb(144, 213, 255); stroke: rgb(130, 192, 230);"></rect><circle  cx="200" cy="88.88888888888889" r="88.88888888888889" id="v-37" stroke="#82c0e6" stroke-width="2" pointer-events="visiblePainted" fill="#90d5ff" style="fill: rgb(144, 213, 255); stroke: rgb(130, 192, 230);"></circle><line  x1="80" y1="266.6666666666667" x2="80" y2="400" id="v-44" stroke="#82c0e6" stroke-width="2" style="stroke: rgb(130, 192, 230);"></line><line  x1="320" y1="266.6666666666667" x2="320" y2="400" id="v-45" stroke="#82c0e6" stroke-width="2" style="stroke: rgb(130, 192, 230);"></line><text  id="v-39" font-size="34" xml:space="preserve" y="0.8em" font-weight="bold" text-anchor="middle" pointer-events="visible" font-family="Open Sans" fill="#ffffff" transform="matrix(1,0,0,1,200,218.10000610351562)" style="fill: rgb(255, 255, 255);"><tspan  dy="0">Business User</tspan></text><text  id="v-40" font-size="17" xml:space="preserve" y="0.8em" text-anchor="middle" font-family="Open Sans" fill="#ffffff" transform="matrix(1,0,0,1,200,258.8999938964844)" style="fill: rgb(255, 255, 255);"><tspan  dy="0">[Person]</tspan></text><text  id="v-41" font-size="24" xml:space="preserve" y="0.8em" text-anchor="middle" font-family="Open Sans" fill="#ffffff" transform="matrix(1,0,0,1,200,289.29998779296875)" style="fill: rgb(255, 255, 255);"><tspan  dy="0">Uses system software for</tspan><tspan dy="1.2em" x="0" >decision-making</tspan></text><g  id="v-42" font-weight="normal" text-anchor="middle" color="#ffffff" transform="matrix(1,0,0,1,197.5,368)" style="fill: rgb(255, 255, 255);" display="none"><g ></g><g ></g><g ></g><g ></g></g><image  id="v-43"></image></g></g><!--z-index:20--><g   id="j_6"  transform="translate(100,1590)" style=""><g  id="v-52" style="opacity: 1;"><rect  x="0" y="160" width="400" height="240" rx="70" id="v-54" stroke="#82c0e6" stroke-width="2" pointer-events="visiblePainted" fill="#90d5ff" style="fill: rgb(144, 213, 255); stroke: rgb(130, 192, 230);"></rect><circle  cx="200" cy="88.88888888888889" r="88.88888888888889" id="v-53" stroke="#82c0e6" stroke-width="2" pointer-events="visiblePainted" fill="#90d5ff" style="fill: rgb(144, 213, 255); stroke: rgb(130, 192, 230);"></circle><line  x1="80" y1="266.6666666666667" x2="80" y2="400" id="v-60" stroke="#82c0e6" stroke-width="2" style="stroke: rgb(130, 192, 230);"></line><line  x1="320" y1="266.6666666666667" x2="320" y2="400" id="v-61" stroke="#82c0e6" stroke-width="2" style="stroke: rgb(130, 192, 230);"></line><text  id="v-55" font-size="34" xml:space="preserve" y="0.8em" font-weight="bold" text-anchor="middle" pointer-events="visible" font-family="Open Sans" fill="#ffffff" transform="matrix(1,0,0,1,200,218.10000610351562)" style="fill: rgb(255, 255, 255);"><tspan  dy="0">System Administrator</tspan></text><text  id="v-56" font-size="17" xml:space="preserve" y="0.8em" text-anchor="middle" font-family="Open Sans" fill="#ffffff" transform="matrix(1,0,0,1,200,258.8999938964844)" style="fill: rgb(255, 255, 255);"><tspan  dy="0">[Person]</tspan></text><text  id="v-57" font-size="24" xml:space="preserve" y="0.8em" text-anchor="middle" font-family="Open Sans" fill="#ffffff" transform="matrix(1,0,0,1,200,289.29998779296875)" style="fill: rgb(255, 255, 255);"><tspan  dy="0">Manages system infrastructure</tspan><tspan dy="1.2em" x="0" >and software</tspan></text><g  id="v-58" font-weight="normal" text-anchor="middle" color="#ffffff" transform="matrix(1,0,0,1,197.5,368)" style="fill: rgb(255, 255, 255);" display="none"><g ></g><g ></g><g ></g><g ></g></g><image  id="v-59"></image></g></g><!--z-index:21--><g   id="j_7"  transform="translate(950,1120)" style=""><g  id="v-68" style="opacity: 1;"><rect  id="v-69" rx="20" ry="20" stroke="#e68da0" stroke-width="2" pointer-events="visiblePainted" fill="#ff9db2" width="450" height="300" style="fill: rgb(255, 157, 178); stroke: rgb(230, 141, 160);"></rect><text  id="v-70" font-size="34" xml:space="preserve" y="0.8em" font-weight="bold" text-anchor="middle" pointer-events="visible" font-family="Open Sans" fill="#000000" transform="matrix(1,0,0,1,225,67.69999694824219)" style="fill: rgb(0, 0, 0);"><tspan  dy="0">House Price Prediction</tspan><tspan dy="1.2em" x="0" >System</tspan></text><text  id="v-71" font-size="17" xml:space="preserve" y="0.8em" text-anchor="middle" font-family="Open Sans" fill="#000000" transform="matrix(1,0,0,1,225,149.3000030517578)" style="fill: rgb(0, 0, 0);"><tspan  dy="0">[Software System]</tspan></text><text  id="v-72" font-size="24" xml:space="preserve" y="0.8em" text-anchor="middle" font-family="Open Sans" fill="#000000" transform="matrix(1,0,0,1,225,179.6999969482422)" style="fill: rgb(0, 0, 0);"><tspan  dy="0">Predicts house prices based on</tspan><tspan dy="1.2em" x="0" >historical data and features</tspan></text><g  id="v-73" color="#000000" transform="matrix(1,0,0,1,222.5,268)" style="fill: rgb(0, 0, 0);" display="none"><g ></g><g ></g><g ></g><g ></g></g><image  id="v-74"></image></g></g><!--z-index:22--><g   id="j_8"  transform="translate(955,280)" style=""><g  id="v-81" style="opacity: 1;"><rect  id="v-82" rx="20" ry="20" stroke="#bebebe" stroke-width="2" pointer-events="visiblePainted" fill="#d3d3d3" width="450" height="300" style="fill: rgb(211, 211, 211); stroke: rgb(190, 190, 190);"></rect><text  id="v-83" font-size="34" xml:space="preserve" y="0.8em" font-weight="bold" text-anchor="middle" pointer-events="visible" font-family="Open Sans" fill="#000000" transform="matrix(1,0,0,1,225,88.0999984741211)" style="fill: rgb(0, 0, 0);"><tspan  dy="0">Real Estate Data Sources</tspan></text><text  id="v-84" font-size="17" xml:space="preserve" y="0.8em" text-anchor="middle" font-family="Open Sans" fill="#000000" transform="matrix(1,0,0,1,225,128.89999389648438)" style="fill: rgb(0, 0, 0);"><tspan  dy="0">[Software System]</tspan></text><text  id="v-85" font-size="24" xml:space="preserve" y="0.8em" text-anchor="middle" font-family="Open Sans" fill="#000000" transform="matrix(1,0,0,1,225,159.3000030517578)" style="fill: rgb(0, 0, 0);"><tspan  dy="0">External APIs and datasets for</tspan><tspan dy="1.2em" x="0" >housing market information</tspan></text><g  id="v-86" color="#000000" transform="matrix(1,0,0,1,222.5,268)" style="fill: rgb(0, 0, 0);" display="none"><g ></g><g ></g><g ></g><g ></g></g><image  id="v-87"></image></g></g><!--z-index:23--><g   id="j_9"  transform="translate(985,1925)" style=""><g  id="v-94" style="opacity: 1;"><rect  id="v-95" rx="20" ry="20" stroke="#e68da0" stroke-width="2" pointer-events="visiblePainted" fill="#ff9db2" width="450" height="300" style="fill: rgb(255, 157, 178); stroke: rgb(230, 141, 160);"></rect><text  id="v-96" font-size="34" xml:space="preserve" y="0.8em" font-weight="bold" text-anchor="middle" pointer-events="visible" font-family="Open Sans" fill="#000000" transform="matrix(1,0,0,1,225,88.0999984741211)" style="fill: rgb(0, 0, 0);"><tspan  dy="0">Databricks Cluster</tspan></text><text  id="v-97" font-size="17" xml:space="preserve" y="0.8em" text-anchor="middle" font-family="Open Sans" fill="#000000" transform="matrix(1,0,0,1,225,128.89999389648438)" style="fill: rgb(0, 0, 0);"><tspan  dy="0">[Software System]</tspan></text><text  id="v-98" font-size="24" xml:space="preserve" y="0.8em" text-anchor="middle" font-family="Open Sans" fill="#000000" transform="matrix(1,0,0,1,225,159.3000030517578)" style="fill: rgb(0, 0, 0);"><tspan  dy="0">The cluster where the software as a</tspan><tspan dy="1.2em" x="0" >service is deployed</tspan></text><g  id="v-99" color="#000000" transform="matrix(1,0,0,1,222.5,268)" style="fill: rgb(0, 0, 0);" display="none"><g ></g><g ></g><g ></g><g ></g></g><image  id="v-100"></image></g></g><!--z-index:24--><g   id="j_10" ><path  stroke="#707070" d="M 1830 964 L 1400 1165" id="v-113" stroke-width="2" stroke-dasharray="30 30" fill="none" style="opacity: 1;"></path><path  fill="black" stroke="black" d="M 0 0 0 0" transform="matrix(-0.9057763814926147,0.4237559735774994,-0.4237559735774994,-0.9057763814926147,1830,963.5700073242188)"></path><path  fill="#707070" stroke="#707070" d="M 20 0 L 0 10 L 20 20 z" id="v-115" transform="matrix(0.9057765007019043,-0.4237557053565979,0.4237557053565979,0.9057765007019043,1395.762451171875,1155.6822509765625)" style="opacity: 1;"></path><path  d="M 1830 964 L 1400 1165" id="v-114" fill="none" style="cursor: default;"></path><g ><g id="v-107"  label-idx="0" cursor="move" transform="matrix(1,0,0,1,1615,1064.5)" style="cursor: default; opacity: 1;"><rect joint-selector="rect" id="v-110" fill="#ffffff" rx="3" ry="3" pointer-events="none" width="166.79998779296875" height="119.40000534057617" transform="matrix(1,0,0,1,-82.80000305175781,-59.70000076293945)"></rect><text joint-selector="text" id="v-109" font-size="24px" xml:space="preserve" y="0.8em" fill="#707070" text-anchor="middle" pointer-events="none" font-family="Open Sans" font-weight="normal" transform="matrix(1,0,0,1,0,-51.900001525878906)"><tspan  dy="0">Creates and</tspan><tspan dy="1.2em" x="0" >refines models</tspan><tspan dy="1.2em" x="0" >for system</tspan><tspan dy="1.2em" x="0" >software</tspan></text></g><g id="v-108"  label-idx="1" cursor="move" transform="matrix(1,0,0,1,1605,1134.0999755859375)" style="cursor: default; opacity: 1;"><rect joint-selector="rect" id="v-112" fill="#ffffff" rx="3" ry="3"  width="0" height="0" transform="matrix(1,0,0,1,0,0)" display="none"></rect><text joint-selector="text" id="v-111" fill="#000000" font-size="14" text-anchor="middle" pointer-events="none"></text></g></g><g  display="none"></g><g  id="v-117" display="none"><g  id="v-105"><path  end="source" d="M 26 0 L 0 13 L 26 26 z"></path></g><g  id="v-106"><path  end="target" d="M 26 0 L 0 13 L 26 26 z"></path></g></g><g  id="v-116" display="none"><g  id="v-104" transform="translate(1793.7634462906274, 980.9384820827532) "><g  event="remove"><circle r="11"></circle><path transform="scale(.8) translate(-16, -16)" d="M24.778,21.419 19.276,15.917 24.777,10.415 21.949,7.585 16.447,13.087 10.945,7.585 8.117,10.415 13.618,15.917 8.116,21.419 10.946,24.248 16.447,18.746 21.948,24.248z"></path><title>Remove link.</title></g><g  event="link:options"><circle r="11" transform="translate(25)"></circle><path fill="white" transform="scale(.55) translate(29, -16)" d="M31.229,17.736c0.064-0.571,0.104-1.148,0.104-1.736s-0.04-1.166-0.104-1.737l-4.377-1.557c-0.218-0.716-0.504-1.401-0.851-2.05l1.993-4.192c-0.725-0.91-1.549-1.734-2.458-2.459l-4.193,1.994c-0.647-0.347-1.334-0.632-2.049-0.849l-1.558-4.378C17.165,0.708,16.588,0.667,16,0.667s-1.166,0.041-1.737,0.105L12.707,5.15c-0.716,0.217-1.401,0.502-2.05,0.849L6.464,4.005C5.554,4.73,4.73,5.554,4.005,6.464l1.994,4.192c-0.347,0.648-0.632,1.334-0.849,2.05l-4.378,1.557C0.708,14.834,0.667,15.412,0.667,16s0.041,1.165,0.105,1.736l4.378,1.558c0.217,0.715,0.502,1.401,0.849,2.049l-1.994,4.193c0.725,0.909,1.549,1.733,2.459,2.458l4.192-1.993c0.648,0.347,1.334,0.633,2.05,0.851l1.557,4.377c0.571,0.064,1.148,0.104,1.737,0.104c0.588,0,1.165-0.04,1.736-0.104l1.558-4.377c0.715-0.218,1.399-0.504,2.049-0.851l4.193,1.993c0.909-0.725,1.733-1.549,2.458-2.458l-1.993-4.193c0.347-0.647,0.633-1.334,0.851-2.049L31.229,17.736zM16,20.871c-2.69,0-4.872-2.182-4.872-4.871c0-2.69,2.182-4.872,4.872-4.872c2.689,0,4.871,2.182,4.871,4.872C20.871,18.689,18.689,20.871,16,20.871z"></path><title>Link options.</title></g></g></g></g><!--z-index:25--><g   id="j_11" ><path  stroke="#707070" d="M 495 961 L 950 1168" id="v-130" stroke-width="2" stroke-dasharray="30 30" fill="none" style="opacity: 1;"></path><path  fill="black" stroke="black" d="M 0 0 0 0" transform="matrix(0.910365104675293,0.4138059616088867,-0.4138059616088867,0.910365104675293,495,960.9099731445312)"></path><path  fill="#707070" stroke="#707070" d="M 20 0 L 0 10 L 20 20 z" id="v-132" transform="matrix(-0.9103651642799377,-0.41380584239959717,0.41380584239959717,-0.9103651642799377,945.8619384765625,1176.8336181640625)" style="opacity: 1;"></path><path  d="M 495 961 L 950 1168" id="v-131" fill="none" style="cursor: default;"></path><g ><g id="v-124"  label-idx="0" cursor="move" transform="matrix(1,0,0,1,722.5,1064.5)" style="cursor: default; opacity: 1;"><rect joint-selector="rect" id="v-127" fill="#ffffff" rx="3" ry="3" pointer-events="none" width="165.99998474121094" height="90.60000228881836" transform="matrix(1,0,0,1,-83,-45.29999923706055)"></rect><text joint-selector="text" id="v-126" font-size="24px" xml:space="preserve" y="0.8em" fill="#707070" text-anchor="middle" pointer-events="none" font-family="Open Sans" font-weight="normal" transform="matrix(1,0,0,1,0,-37.5)"><tspan  dy="0">Maintains data</tspan><tspan dy="1.2em" x="0" >pipelines and</tspan><tspan dy="1.2em" x="0" >infrastructure</tspan></text></g><g id="v-125"  label-idx="1" cursor="move" transform="matrix(1,0,0,1,712.5,1119.699951171875)" style="cursor: default; opacity: 1;"><rect joint-selector="rect" id="v-129" fill="#ffffff" rx="3" ry="3"  width="0" height="0" transform="matrix(1,0,0,1,0,0)" display="none"></rect><text joint-selector="text" id="v-128" fill="#000000" font-size="14" text-anchor="middle" pointer-events="none"></text></g></g><g  display="none"></g><g  id="v-134" display="none"><g  id="v-122"><path  end="source" d="M 26 0 L 0 13 L 26 26 z"></path></g><g  id="v-123"><path  end="target" d="M 26 0 L 0 13 L 26 26 z"></path></g></g><g  id="v-133" display="none"><g  id="v-121" transform="translate(531.4091762687754, 977.5641746981022) "><g  event="remove"><circle r="11"></circle><path transform="scale(.8) translate(-16, -16)" d="M24.778,21.419 19.276,15.917 24.777,10.415 21.949,7.585 16.447,13.087 10.945,7.585 8.117,10.415 13.618,15.917 8.116,21.419 10.946,24.248 16.447,18.746 21.948,24.248z"></path><title>Remove link.</title></g><g  event="link:options"><circle r="11" transform="translate(25)"></circle><path fill="white" transform="scale(.55) translate(29, -16)" d="M31.229,17.736c0.064-0.571,0.104-1.148,0.104-1.736s-0.04-1.166-0.104-1.737l-4.377-1.557c-0.218-0.716-0.504-1.401-0.851-2.05l1.993-4.192c-0.725-0.91-1.549-1.734-2.458-2.459l-4.193,1.994c-0.647-0.347-1.334-0.632-2.049-0.849l-1.558-4.378C17.165,0.708,16.588,0.667,16,0.667s-1.166,0.041-1.737,0.105L12.707,5.15c-0.716,0.217-1.401,0.502-2.05,0.849L6.464,4.005C5.554,4.73,4.73,5.554,4.005,6.464l1.994,4.192c-0.347,0.648-0.632,1.334-0.849,2.05l-4.378,1.557C0.708,14.834,0.667,15.412,0.667,16s0.041,1.165,0.105,1.736l4.378,1.558c0.217,0.715,0.502,1.401,0.849,2.049l-1.994,4.193c0.725,0.909,1.549,1.733,2.459,2.458l4.192-1.993c0.648,0.347,1.334,0.633,2.05,0.851l1.557,4.377c0.571,0.064,1.148,0.104,1.737,0.104c0.588,0,1.165-0.04,1.736-0.104l1.558-4.377c0.715-0.218,1.399-0.504,2.049-0.851l4.193,1.993c0.909-0.725,1.733-1.549,2.458-2.458l-1.993-4.193c0.347-0.647,0.633-1.334,0.851-2.049L31.229,17.736zM16,20.871c-2.69,0-4.872-2.182-4.872-4.871c0-2.69,2.182-4.872,4.872-4.872c2.689,0,4.871,2.182,4.871,4.872C20.871,18.689,18.689,20.871,16,20.871z"></path><title>Link options.</title></g></g></g></g><!--z-index:26--><g   id="j_12" ><path  stroke="#707070" d="M 1825 1714 L 1395 1420" id="v-147" stroke-width="2" stroke-dasharray="30 30" fill="none" style="opacity: 1;"></path><path  fill="black" stroke="black" d="M 0 0 0 0" transform="matrix(-0.8260197639465332,-0.5636411309242249,0.5636411309242249,-0.8260197639465332,1825,1713.530029296875)"></path><path  fill="#707070" stroke="#707070" d="M 20 0 L 0 10 L 20 20 z" id="v-149" transform="matrix(0.8260197043418884,0.5636412501335144,-0.5636412501335144,0.8260197043418884,1400.4664306640625,1411.73974609375)" style="opacity: 1;"></path><path  d="M 1825 1714 L 1395 1420" id="v-148" fill="none" style="cursor: default;"></path><g ><g id="v-141"  label-idx="0" cursor="move" transform="matrix(1,0,0,1,1610,1567)" style="cursor: default; opacity: 1;"><rect joint-selector="rect" id="v-144" fill="#ffffff" rx="3" ry="3" pointer-events="none" width="185.9499969482422" height="90.60000228881836" transform="matrix(1,0,0,1,-91,-45.29999923706055)"></rect><text joint-selector="text" id="v-143" font-size="24px" xml:space="preserve" y="0.8em" fill="#707070" text-anchor="middle" pointer-events="none" font-family="Open Sans" font-weight="normal" transform="matrix(1,0,0,1,0,-37.5)"><tspan  dy="0">Uses system</tspan><tspan dy="1.2em" x="0" >software for</tspan><tspan dy="1.2em" x="0" >decision-making</tspan></text></g><g id="v-142"  label-idx="1" cursor="move" transform="matrix(1,0,0,1,1600,1622.199951171875)" style="cursor: default; opacity: 1;"><rect joint-selector="rect" id="v-146" fill="#ffffff" rx="3" ry="3"  width="0" height="0" transform="matrix(1,0,0,1,0,0)" display="none"></rect><text joint-selector="text" id="v-145" fill="#000000" font-size="14" text-anchor="middle" pointer-events="none"></text></g></g><g  display="none"></g><g  id="v-151" display="none"><g  id="v-139"><path  end="source" d="M 26 0 L 0 13 L 26 26 z"></path></g><g  id="v-140"><path  end="target" d="M 26 0 L 0 13 L 26 26 z"></path></g></g><g  id="v-150" display="none"><g  id="v-138" transform="translate(1791.980177245254, 1691.423656070011) "><g  event="remove"><circle r="11"></circle><path transform="scale(.8) translate(-16, -16)" d="M24.778,21.419 19.276,15.917 24.777,10.415 21.949,7.585 16.447,13.087 10.945,7.585 8.117,10.415 13.618,15.917 8.116,21.419 10.946,24.248 16.447,18.746 21.948,24.248z"></path><title>Remove link.</title></g><g  event="link:options"><circle r="11" transform="translate(25)"></circle><path fill="white" transform="scale(.55) translate(29, -16)" d="M31.229,17.736c0.064-0.571,0.104-1.148,0.104-1.736s-0.04-1.166-0.104-1.737l-4.377-1.557c-0.218-0.716-0.504-1.401-0.851-2.05l1.993-4.192c-0.725-0.91-1.549-1.734-2.458-2.459l-4.193,1.994c-0.647-0.347-1.334-0.632-2.049-0.849l-1.558-4.378C17.165,0.708,16.588,0.667,16,0.667s-1.166,0.041-1.737,0.105L12.707,5.15c-0.716,0.217-1.401,0.502-2.05,0.849L6.464,4.005C5.554,4.73,4.73,5.554,4.005,6.464l1.994,4.192c-0.347,0.648-0.632,1.334-0.849,2.05l-4.378,1.557C0.708,14.834,0.667,15.412,0.667,16s0.041,1.165,0.105,1.736l4.378,1.558c0.217,0.715,0.502,1.401,0.849,2.049l-1.994,4.193c0.725,0.909,1.549,1.733,2.459,2.458l4.192-1.993c0.648,0.347,1.334,0.633,2.05,0.851l1.557,4.377c0.571,0.064,1.148,0.104,1.737,0.104c0.588,0,1.165-0.04,1.736-0.104l1.558-4.377c0.715-0.218,1.399-0.504,2.049-0.851l4.193,1.993c0.909-0.725,1.733-1.549,2.458-2.458l-1.993-4.193c0.347-0.647,0.633-1.334,0.851-2.049L31.229,17.736zM16,20.871c-2.69,0-4.872-2.182-4.872-4.871c0-2.69,2.182-4.872,4.872-4.872c2.689,0,4.871,2.182,4.871,4.872C20.871,18.689,18.689,20.871,16,20.871z"></path><title>Link options.</title></g></g></g></g><!--z-index:27--><g   id="j_13" ><path  stroke="#707070" d="M 500 1671 L 950 1404" id="v-164" stroke-width="2" stroke-dasharray="30 30" fill="none" style="opacity: 1;"></path><path  fill="black" stroke="black" d="M 0 0 0 0" transform="matrix(0.8596513867378235,-0.5108810663223267,0.5108810663223267,0.8596513867378235,500,1671.1400146484375)"></path><path  fill="#707070" stroke="#707070" d="M 20 0 L 0 10 L 20 20 z" id="v-166" transform="matrix(-0.8596512675285339,0.5108813047409058,-0.5108813047409058,-0.8596512675285339,955.1088256835938,1412.3065185546875)" style="opacity: 1;"></path><path  d="M 500 1671 L 950 1404" id="v-165" fill="none" style="cursor: default;"></path><g ><g id="v-158"  label-idx="0" cursor="move" transform="matrix(1,0,0,1,725,1537.5)" style="cursor: default; opacity: 1;"><rect joint-selector="rect" id="v-161" fill="#ffffff" rx="3" ry="3" pointer-events="none" width="186.39999389648438" height="90.60000228881836" transform="matrix(1,0,0,1,-93.19999694824219,-45.29999923706055)"></rect><text joint-selector="text" id="v-160" font-size="24px" xml:space="preserve" y="0.8em" fill="#707070" text-anchor="middle" pointer-events="none" font-family="Open Sans" font-weight="normal" transform="matrix(1,0,0,1,0,-37.5)"><tspan  dy="0">Manages system</tspan><tspan dy="1.2em" x="0" >infrastructure</tspan><tspan dy="1.2em" x="0" >and software</tspan></text></g><g id="v-159"  label-idx="1" cursor="move" transform="matrix(1,0,0,1,715,1592.699951171875)" style="cursor: default; opacity: 1;"><rect joint-selector="rect" id="v-163" fill="#ffffff" rx="3" ry="3"  width="0" height="0" transform="matrix(1,0,0,1,0,0)" display="none"></rect><text joint-selector="text" id="v-162" fill="#000000" font-size="14" text-anchor="middle" pointer-events="none"></text></g></g><g  display="none"></g><g  id="v-168" display="none"><g  id="v-156"><path  end="source" d="M 26 0 L 0 13 L 26 26 z"></path></g><g  id="v-157"><path  end="target" d="M 26 0 L 0 13 L 26 26 z"></path></g></g><g  id="v-167" display="none"><g  id="v-155" transform="translate(534.4004803869514, 1650.5890483037422) "><g  event="remove"><circle r="11"></circle><path transform="scale(.8) translate(-16, -16)" d="M24.778,21.419 19.276,15.917 24.777,10.415 21.949,7.585 16.447,13.087 10.945,7.585 8.117,10.415 13.618,15.917 8.116,21.419 10.946,24.248 16.447,18.746 21.948,24.248z"></path><title>Remove link.</title></g><g  event="link:options"><circle r="11" transform="translate(25)"></circle><path fill="white" transform="scale(.55) translate(29, -16)" d="M31.229,17.736c0.064-0.571,0.104-1.148,0.104-1.736s-0.04-1.166-0.104-1.737l-4.377-1.557c-0.218-0.716-0.504-1.401-0.851-2.05l1.993-4.192c-0.725-0.91-1.549-1.734-2.458-2.459l-4.193,1.994c-0.647-0.347-1.334-0.632-2.049-0.849l-1.558-4.378C17.165,0.708,16.588,0.667,16,0.667s-1.166,0.041-1.737,0.105L12.707,5.15c-0.716,0.217-1.401,0.502-2.05,0.849L6.464,4.005C5.554,4.73,4.73,5.554,4.005,6.464l1.994,4.192c-0.347,0.648-0.632,1.334-0.849,2.05l-4.378,1.557C0.708,14.834,0.667,15.412,0.667,16s0.041,1.165,0.105,1.736l4.378,1.558c0.217,0.715,0.502,1.401,0.849,2.049l-1.994,4.193c0.725,0.909,1.549,1.733,2.459,2.458l4.192-1.993c0.648,0.347,1.334,0.633,2.05,0.851l1.557,4.377c0.571,0.064,1.148,0.104,1.737,0.104c0.588,0,1.165-0.04,1.736-0.104l1.558-4.377c0.715-0.218,1.399-0.504,2.049-0.851l4.193,1.993c0.909-0.725,1.733-1.549,2.458-2.458l-1.993-4.193c0.347-0.647,0.633-1.334,0.851-2.049L31.229,17.736zM16,20.871c-2.69,0-4.872-2.182-4.872-4.871c0-2.69,2.182-4.872,4.872-4.872c2.689,0,4.871,2.182,4.871,4.872C20.871,18.689,18.689,20.871,16,20.871z"></path><title>Link options.</title></g></g></g></g><!--z-index:28--><g   id="j_14" ><path  stroke="#707070" d="M 1176 1120 L 1179 580" id="v-181" stroke-width="2" stroke-dasharray="30 30" fill="none" style="opacity: 1;"></path><path  fill="black" stroke="black" d="M 0 0 0 0" transform="matrix(0.00596278253942728,-0.9999822378158569,0.9999822378158569,0.00596278253942728,1175.8900146484375,1120)"></path><path  fill="#707070" stroke="#707070" d="M 20 0 L 0 10 L 20 20 z" id="v-183" transform="matrix(-0.0059629157185554504,0.9999822378158569,-0.9999822378158569,-0.0059629157185554504,1189.10986328125,580.0596313476562)" style="opacity: 1;"></path><path  d="M 1176 1120 L 1179 580" id="v-182" fill="none" style="cursor: default;"></path><g ><g id="v-175"  label-idx="0" cursor="move" transform="matrix(1,0,0,1,1177.5,850)" style="cursor: default; opacity: 1;"><rect joint-selector="rect" id="v-178" fill="#ffffff" rx="3" ry="3" pointer-events="none" width="168.04998779296875" height="119.40000534057617" transform="matrix(1,0,0,1,-81.80000305175781,-59.70000076293945)"></rect><text joint-selector="text" id="v-177" font-size="24px" xml:space="preserve" y="0.8em" fill="#707070" text-anchor="middle" pointer-events="none" font-family="Open Sans" font-weight="normal" transform="matrix(1,0,0,1,0,-51.900001525878906)"><tspan  dy="0">Ingests real</tspan><tspan dy="1.2em" x="0" >estate data for</tspan><tspan dy="1.2em" x="0" >analysis and</tspan><tspan dy="1.2em" x="0" >prediction</tspan></text></g><g id="v-176"  label-idx="1" cursor="move" transform="matrix(1,0,0,1,1167.5,919.5999755859375)" style="cursor: default; opacity: 1;"><rect joint-selector="rect" id="v-180" fill="#ffffff" rx="3" ry="3"  width="0" height="0" transform="matrix(1,0,0,1,0,0)" display="none"></rect><text joint-selector="text" id="v-179" fill="#000000" font-size="14" text-anchor="middle" pointer-events="none"></text></g></g><g  display="none"></g><g  id="v-185" display="none"><g  id="v-173"><path  end="source" d="M 26 0 L 0 13 L 26 26 z"></path></g><g  id="v-174"><path  end="target" d="M 26 0 L 0 13 L 26 26 z"></path></g></g><g  id="v-184" display="none"><g  id="v-172" transform="translate(1176.2222187929465, 1080.000617269662) "><g  event="remove"><circle r="11"></circle><path transform="scale(.8) translate(-16, -16)" d="M24.778,21.419 19.276,15.917 24.777,10.415 21.949,7.585 16.447,13.087 10.945,7.585 8.117,10.415 13.618,15.917 8.116,21.419 10.946,24.248 16.447,18.746 21.948,24.248z"></path><title>Remove link.</title></g><g  event="link:options"><circle r="11" transform="translate(25)"></circle><path fill="white" transform="scale(.55) translate(29, -16)" d="M31.229,17.736c0.064-0.571,0.104-1.148,0.104-1.736s-0.04-1.166-0.104-1.737l-4.377-1.557c-0.218-0.716-0.504-1.401-0.851-2.05l1.993-4.192c-0.725-0.91-1.549-1.734-2.458-2.459l-4.193,1.994c-0.647-0.347-1.334-0.632-2.049-0.849l-1.558-4.378C17.165,0.708,16.588,0.667,16,0.667s-1.166,0.041-1.737,0.105L12.707,5.15c-0.716,0.217-1.401,0.502-2.05,0.849L6.464,4.005C5.554,4.73,4.73,5.554,4.005,6.464l1.994,4.192c-0.347,0.648-0.632,1.334-0.849,2.05l-4.378,1.557C0.708,14.834,0.667,15.412,0.667,16s0.041,1.165,0.105,1.736l4.378,1.558c0.217,0.715,0.502,1.401,0.849,2.049l-1.994,4.193c0.725,0.909,1.549,1.733,2.459,2.458l4.192-1.993c0.648,0.347,1.334,0.633,2.05,0.851l1.557,4.377c0.571,0.064,1.148,0.104,1.737,0.104c0.588,0,1.165-0.04,1.736-0.104l1.558-4.377c0.715-0.218,1.399-0.504,2.049-0.851l4.193,1.993c0.909-0.725,1.733-1.549,2.458-2.458l-1.993-4.193c0.347-0.647,0.633-1.334,0.851-2.049L31.229,17.736zM16,20.871c-2.69,0-4.872-2.182-4.872-4.871c0-2.69,2.182-4.872,4.872-4.872c2.689,0,4.871,2.182,4.871,4.872C20.871,18.689,18.689,20.871,16,20.871z"></path><title>Link options.</title></g></g></g></g><!--z-index:29--><g   id="j_15" ><path  stroke="#707070" d="M 1182 1420 L 1203 1925" id="v-198" stroke-width="2" stroke-dasharray="30 30" fill="none" style="opacity: 1;"></path><path  fill="black" stroke="black" d="M 0 0 0 0" transform="matrix(0.04344405233860016,0.9990558624267578,-0.9990558624267578,0.04344405233860016,1181.52001953125,1420)"></path><path  fill="#707070" stroke="#707070" d="M 20 0 L 0 10 L 20 20 z" id="v-200" transform="matrix(-0.04344431683421135,-0.9990558624267578,0.9990558624267578,-0.04344431683421135,1193.4893798828125,1925.4344482421875)" style="opacity: 1;"></path><path  d="M 1182 1420 L 1203 1925" id="v-199" fill="none" style="cursor: default;"></path><g ><g id="v-192"  label-idx="0" cursor="move" transform="matrix(1,0,0,1,1192.5,1672.5)" style="cursor: default; opacity: 1;"><rect joint-selector="rect" id="v-195" fill="#ffffff" rx="3" ry="3" pointer-events="none" width="185.09999084472656" height="61.799997329711914" transform="matrix(1,0,0,1,-92.5999984741211,-30.899999618530273)"></rect><text joint-selector="text" id="v-194" font-size="24px" xml:space="preserve" y="0.8em" fill="#707070" text-anchor="middle" pointer-events="none" font-family="Open Sans" font-weight="normal" transform="matrix(1,0,0,1,0,-23.100000381469727)"><tspan  dy="0">Manages the full</tspan><tspan dy="1.2em" x="0" >ML lifecycle</tspan></text></g><g id="v-193"  label-idx="1" cursor="move" transform="matrix(1,0,0,1,1182.5,1713.300048828125)" style="cursor: default; opacity: 1;"><rect joint-selector="rect" id="v-197" fill="#ffffff" rx="3" ry="3"  width="0" height="0" transform="matrix(1,0,0,1,0,0)" display="none"></rect><text joint-selector="text" id="v-196" fill="#000000" font-size="14" text-anchor="middle" pointer-events="none"></text></g></g><g  display="none"></g><g  id="v-202" display="none"><g  id="v-190"><path  end="source" d="M 26 0 L 0 13 L 26 26 z"></path></g><g  id="v-191"><path  end="target" d="M 26 0 L 0 13 L 26 26 z"></path></g></g><g  id="v-201" display="none"><g  id="v-189" transform="translate(1183.6619300175155, 1459.9654599450184) "><g  event="remove"><circle r="11"></circle><path transform="scale(.8) translate(-16, -16)" d="M24.778,21.419 19.276,15.917 24.777,10.415 21.949,7.585 16.447,13.087 10.945,7.585 8.117,10.415 13.618,15.917 8.116,21.419 10.946,24.248 16.447,18.746 21.948,24.248z"></path><title>Remove link.</title></g><g  event="link:options"><circle r="11" transform="translate(25)"></circle><path fill="white" transform="scale(.55) translate(29, -16)" d="M31.229,17.736c0.064-0.571,0.104-1.148,0.104-1.736s-0.04-1.166-0.104-1.737l-4.377-1.557c-0.218-0.716-0.504-1.401-0.851-2.05l1.993-4.192c-0.725-0.91-1.549-1.734-2.458-2.459l-4.193,1.994c-0.647-0.347-1.334-0.632-2.049-0.849l-1.558-4.378C17.165,0.708,16.588,0.667,16,0.667s-1.166,0.041-1.737,0.105L12.707,5.15c-0.716,0.217-1.401,0.502-2.05,0.849L6.464,4.005C5.554,4.73,4.73,5.554,4.005,6.464l1.994,4.192c-0.347,0.648-0.632,1.334-0.849,2.05l-4.378,1.557C0.708,14.834,0.667,15.412,0.667,16s0.041,1.165,0.105,1.736l4.378,1.558c0.217,0.715,0.502,1.401,0.849,2.049l-1.994,4.193c0.725,0.909,1.549,1.733,2.459,2.458l4.192-1.993c0.648,0.347,1.334,0.633,2.05,0.851l1.557,4.377c0.571,0.064,1.148,0.104,1.737,0.104c0.588,0,1.165-0.04,1.736-0.104l1.558-4.377c0.715-0.218,1.399-0.504,2.049-0.851l4.193,1.993c0.909-0.725,1.733-1.549,2.458-2.458l-1.993-4.193c0.347-0.647,0.633-1.334,0.851-2.049L31.229,17.736zM16,20.871c-2.69,0-4.872-2.182-4.872-4.871c0-2.69,2.182-4.872,4.872-4.872c2.689,0,4.871,2.182,4.871,4.872C20.871,18.689,18.689,20.871,16,20.871z"></path><title>Link options.</title></g></g></g></g><!--z-index:30--></g><g ></g><g ></g><g ></g></g></svg>